<svg xmlns="http://www.w3.org/2000/svg" xmlns:xlink="http://www.w3.org/1999/xlink" x="0" y="0" width="678.3333129882812" height="553.1333618164062" style="
        width:678.3333129882812px;
        height:553.1333618164062px;
        background: #FFF;
        fill: none;
">
        <script href="./labelGraph.js"></script>
        
        <svg xmlns="http://www.w3.org/2000/svg" class="role-diagram-draw-area"><g class="shapes-region" style="stroke: black; fill: none;"><g class="arrow-line"><path class="connection real" stroke-dasharray="" d="  M260,150 L181.33,61.49" style="stroke: rgb(0, 0, 0); stroke-width: 1px; fill: none; fill-opacity: 1;"/><g stroke="#000" transform="matrix(0.6643176677893625,0.7474503570558396,-0.7474503570558396,0.6643176677893625,180,60)" style="stroke: rgb(0, 0, 0); stroke-width: 1px;"><path d=" M10.93,-3.29 Q4.96,-0.45 0,0 Q4.96,0.45 10.93,3.29"/></g></g><g class="arrow-line"><path class="connection real" stroke-dasharray="" d="  M320,150 L300.43,61.95" style="stroke: rgb(0, 0, 0); stroke-width: 1px; fill: none; fill-opacity: 1;"/><g stroke="#000" transform="matrix(0.2169507716396202,0.9761825457797191,-0.9761825457797191,0.2169507716396202,300,60)" style="stroke: rgb(0, 0, 0); stroke-width: 1px;"><path d=" M10.93,-3.29 Q4.96,-0.45 0,0 Q4.96,0.45 10.93,3.29"/></g></g><g class="arrow-line"><path class="connection real" stroke-dasharray="" d="  M320,510 L320,462" style="stroke: rgb(0, 0, 0); stroke-width: 1px; fill: none; fill-opacity: 1;"/><g stroke="#000" transform="matrix(3.061616997868383e-16,1,-1,3.061616997868383e-16,320,460)" style="stroke: rgb(0, 0, 0); stroke-width: 1px;"><path d=" M10.93,-3.29 Q4.96,-0.45 0,0 Q4.96,0.45 10.93,3.29"/></g></g><g class="arrow-line"><path class="connection real" stroke-dasharray="" d="  M320,440 L320,392" style="stroke: rgb(0, 0, 0); stroke-width: 1px; fill: none; fill-opacity: 1;"/><g stroke="#000" transform="matrix(3.061616997868383e-16,1,-1,3.061616997868383e-16,320,390)" style="stroke: rgb(0, 0, 0); stroke-width: 1px;"><path d=" M10.93,-3.29 Q4.96,-0.45 0,0 Q4.96,0.45 10.93,3.29"/></g></g><g class="arrow-line"><path class="connection real" stroke-dasharray="" d="  M460,260 L391.32,181.51" style="stroke: rgb(0, 0, 0); stroke-width: 1px; fill: none; fill-opacity: 1;"/><g stroke="#000" transform="matrix(0.6585581289119198,0.7525298604334789,-0.7525298604334789,0.6585581289119198,390,180)" style="stroke: rgb(0, 0, 0); stroke-width: 1px;"><path d=" M10.93,-3.29 Q4.96,-0.45 0,0 Q4.96,0.45 10.93,3.29"/></g></g><g class="arrow-line"><path class="connection real" stroke-dasharray="" d="  M60,300 L118,300" style="stroke: rgb(0, 0, 0); stroke-width: 1px; fill: none; fill-opacity: 1;"/><g stroke="#000" transform="matrix(-1,1.2246467991473532e-16,-1.2246467991473532e-16,-1,120.00000000000001,300)" style="stroke: rgb(0, 0, 0); stroke-width: 1px;"><path d=" M10.93,-3.29 Q4.96,-0.45 0,0 Q4.96,0.45 10.93,3.29"/></g></g><g class="composite-shape"><path class="real" d=" M30,280 L160,280 L160,430 L30,430 Z" style="stroke-width: 1px; stroke: rgb(65, 117, 5); stroke-opacity: 1; fill: none; fill-opacity: 1;"/></g><g class="composite-shape"><path class="real" d=" M30,460 L160,460 L160,520 L30,520 Z" style="stroke-width: 1px; stroke: rgb(74, 144, 226); stroke-opacity: 1; fill: none; fill-opacity: 1;"/></g><g class="arrow-line"><path class="connection real" stroke-dasharray="" d="  M320,370 L320,322" style="stroke: rgb(0, 0, 0); stroke-width: 1px; fill: none; fill-opacity: 1;"/><g stroke="#000" transform="matrix(3.061616997868383e-16,1,-1,3.061616997868383e-16,320,320)" style="stroke: rgb(0, 0, 0); stroke-width: 1px;"><path d=" M10.93,-3.29 Q4.96,-0.45 0,0 Q4.96,0.45 10.93,3.29"/></g></g><g class="arrow-line"><path class="connection real" stroke-dasharray="" d="  M320,300 L320,252" style="stroke: rgb(0, 0, 0); stroke-width: 1px; fill: none; fill-opacity: 1;"/><g stroke="#000" transform="matrix(3.061616997868383e-16,1,-1,3.061616997868383e-16,320,250)" style="stroke: rgb(0, 0, 0); stroke-width: 1px;"><path d=" M10.93,-3.29 Q4.96,-0.45 0,0 Q4.96,0.45 10.93,3.29"/></g></g><g class="arrow-line"><path class="connection real" stroke-dasharray="" d="  M400,370 L448.84,301.63" style="stroke: rgb(0, 0, 0); stroke-width: 1px; fill: none; fill-opacity: 1;"/><g stroke="#000" transform="matrix(-0.5812711740024641,0.8137099128521152,-0.8137099128521152,-0.5812711740024641,450,300)" style="stroke: rgb(0, 0, 0); stroke-width: 1px;"><path d=" M10.93,-3.29 Q4.96,-0.45 0,0 Q4.96,0.45 10.93,3.29"/></g></g><g class="arrow-line"><path class="connection real" stroke-dasharray="" d="  M320,230 L320,182" style="stroke: rgb(0, 0, 0); stroke-width: 1px; fill: none; fill-opacity: 1;"/><g stroke="#000" transform="matrix(3.061616997868383e-16,1,-1,3.061616997868383e-16,320,180)" style="stroke: rgb(0, 0, 0); stroke-width: 1px;"><path d=" M10.93,-3.29 Q4.96,-0.45 0,0 Q4.96,0.45 10.93,3.29"/></g></g><g class="arrow-line"><path class="connection real" stroke-dasharray="" d="  M360,150 L448.66,51.49" style="stroke: rgb(0, 0, 0); stroke-width: 1px; fill: none; fill-opacity: 1;"/><g stroke="#000" transform="matrix(-0.6690008929278369,0.743261599480127,-0.743261599480127,-0.6690008929278369,450.00000000000006,50)" style="stroke: rgb(0, 0, 0); stroke-width: 1px;"><path d=" M10.93,-3.29 Q4.96,-0.45 0,0 Q4.96,0.45 10.93,3.29"/></g></g><g class="arrow-line"><path class="connection real" stroke-dasharray="" d="  M140,200 L140,62" style="stroke: rgb(0, 0, 0); stroke-width: 1px; fill: none; fill-opacity: 1;"/><g stroke="#000" transform="matrix(3.061616997868383e-16,1,-1,3.061616997868383e-16,140,60)" style="stroke: rgb(0, 0, 0); stroke-width: 1px;"><path d=" M10.93,-3.29 Q4.96,-0.45 0,0 Q4.96,0.45 10.93,3.29"/></g></g><g/></g><g/><g/><g/></svg>
        <svg xmlns="http://www.w3.org/2000/svg" xmlns:xlink="http://www.w3.org/1999/xlink" width="677" height="551.7999877929688" style="width:677px;height:551.7999877929688px;font-family:Asana-Math, Asana;background:#FFF;"><g><g><g><text x="281.6666259765625" y="441.8333435058594" style="white-space:pre;stroke:none;fill:rgb(0,0,0);fill-opacity:1;font-size:15px;font-family:Arial, Helvetica, sans-serif;font-weight:400;font-style:normal;dominant-baseline:text-before-edge;text-decoration:rgb(0, 0, 0);">generateJS</text></g></g></g><g><g><g><text x="261.6666259765625" y="41.83332824707031" style="white-space:pre;stroke:none;fill:rgb(0,0,0);fill-opacity:1;font-size:15px;font-family:Arial, Helvetica, sans-serif;font-weight:400;font-style:normal;dominant-baseline:text-before-edge;text-decoration:rgb(0, 0, 0);">idArrows</text></g></g></g><g><g><g><text x="121.6666259765625" y="41.83332824707031" style="white-space:pre;stroke:none;fill:rgb(0,0,0);fill-opacity:1;font-size:15px;font-family:Arial, Helvetica, sans-serif;font-weight:400;font-style:normal;dominant-baseline:text-before-edge;text-decoration:rgb(0, 0, 0);">idLabels</text></g></g></g><g><g><g><text x="401.6666259765625" y="31.833328247070312" style="white-space:pre;stroke:none;fill:rgb(0,0,0);fill-opacity:1;font-size:15px;font-family:Arial, Helvetica, sans-serif;font-weight:400;font-style:normal;dominant-baseline:text-before-edge;text-decoration:rgb(0, 0, 0);">normalizeRects</text></g></g></g><g><g><g><text x="237.6666259765625" y="161.8333282470703" style="white-space:pre;stroke:none;fill:rgb(0,0,0);fill-opacity:1;font-size:15px;font-family:Arial, Helvetica, sans-serif;font-weight:400;font-style:normal;dominant-baseline:text-before-edge;text-decoration:rgb(0, 0, 0);">annotateContainments</text></g></g></g><g><g><g><text x="237.6666259765625" y="371.8333435058594" style="white-space:pre;stroke:none;fill:rgb(0,0,0);fill-opacity:1;font-size:15px;font-family:Arial, Helvetica, sans-serif;font-weight:400;font-style:normal;dominant-baseline:text-before-edge;text-decoration:rgb(0, 0, 0);">annotateArrowConnections</text></g></g></g><g><g><g><text x="261.6666259765625" y="511.8333435058594" style="white-space:pre;stroke:none;fill:rgb(0,0,0);fill-opacity:1;font-size:15px;font-family:Arial, Helvetica, sans-serif;font-weight:400;font-style:normal;dominant-baseline:text-before-edge;text-decoration:rgb(0, 0, 0);">restoreComments</text></g></g></g><g><g><g><text x="41.6666259765625" y="291.8333435058594" style="white-space:pre;stroke:none;fill:rgb(0,0,0);fill-opacity:1;font-size:15px;font-family:Arial, Helvetica, sans-serif;font-weight:400;font-style:normal;dominant-baseline:text-before-edge;text-decoration:rgb(0, 0, 0);">A</text></g></g></g><g><g><g><text x="128.6666259765625" y="291.8333435058594" style="white-space:pre;stroke:none;fill:rgb(0,0,0);fill-opacity:1;font-size:15px;font-family:Arial, Helvetica, sans-serif;font-weight:400;font-style:normal;dominant-baseline:text-before-edge;text-decoration:rgb(0, 0, 0);">B</text></g></g></g><g><g><g><text x="51.6666259765625" y="321.8333435058594" style="white-space:pre;stroke:none;fill:rgb(0,0,0);fill-opacity:1;font-size:15px;font-family:Arial, Helvetica, sans-serif;font-weight:400;font-style:normal;dominant-baseline:text-before-edge;text-decoration:rgb(0, 0, 0);">A requires B</text></g></g></g><g><g><g><text x="41.6666259765625" y="351.3999938964844" style="white-space:pre;stroke:none;fill:rgb(0,0,0);fill-opacity:1;font-size:12px;font-family:Arial, Helvetica, sans-serif;font-weight:400;font-style:normal;dominant-baseline:text-before-edge;text-decoration:rgb(0, 0, 0);">Dependency graph</text></g></g><g><g><text x="41.6666259765625" y="368.1999816894531" style="white-space:pre;stroke:none;fill:rgb(0,0,0);fill-opacity:1;font-size:12px;font-family:Arial, Helvetica, sans-serif;font-weight:400;font-style:normal;dominant-baseline:text-before-edge;text-decoration:rgb(0, 0, 0);">of passes for the</text></g></g><g><g><text x="41.6666259765625" y="385.6666564941406" style="white-space:pre;stroke:none;fill:rgb(0,0,0);fill-opacity:1;font-size:12px;font-family:Courier New, Courier, monospace;font-weight:400;font-style:normal;dominant-baseline:text-before-edge;text-decoration:rgb(0, 0, 0);">labelGraph</text></g><g><text x="113.6666259765625" y="385" style="white-space:pre;stroke:none;fill:rgb(0,0,0);fill-opacity:1;font-size:12px;font-family:Arial, Helvetica, sans-serif;font-weight:400;font-style:normal;dominant-baseline:text-before-edge;text-decoration:rgb(0, 0, 0);"> format</text></g></g><g><g><text x="41.6666259765625" y="402.4666748046875" style="white-space:pre;stroke:none;fill:rgb(0,0,0);fill-opacity:1;font-size:12px;font-family:Arial, Helvetica, sans-serif;font-weight:400;font-style:normal;dominant-baseline:text-before-edge;text-decoration:rgb(0, 0, 0);">(output to JS code)</text></g></g></g><g><g><g><text x="37.6666259765625" y="473.3999938964844" style="white-space:pre;stroke:none;fill:rgb(0,0,0);fill-opacity:1;font-size:12px;font-family:Arial, Helvetica, sans-serif;font-weight:400;font-style:normal;dominant-baseline:text-before-edge;text-decoration:rgb(0, 0, 0);">&quot;format&quot;: &quot;labelGraph&quot;</text></g></g><g><g><text x="37.6666259765625" y="490.1999816894531" style="white-space:pre;stroke:none;fill:rgb(0,0,0);fill-opacity:1;font-size:12px;font-family:Arial, Helvetica, sans-serif;font-weight:400;font-style:normal;dominant-baseline:text-before-edge;text-decoration:rgb(0, 0, 0);">&quot;test&quot;: &quot;labelGraph&quot;</text></g></g></g><g><g><g><text x="237.6666259765625" y="231.83334350585938" style="white-space:pre;stroke:none;fill:rgb(0,0,0);fill-opacity:1;font-size:15px;font-family:Arial, Helvetica, sans-serif;font-weight:400;font-style:normal;dominant-baseline:text-before-edge;text-decoration:rgb(0, 0, 0);">annotateComments</text></g></g></g><g><g><g><text x="267.6666259765625" y="301.8333435058594" style="white-space:pre;stroke:none;fill:rgb(0,0,0);fill-opacity:1;font-size:15px;font-family:Arial, Helvetica, sans-serif;font-weight:400;font-style:normal;dominant-baseline:text-before-edge;text-decoration:rgb(0, 0, 0);">hideComments</text></g></g></g><g><g><g><text x="421.6666259765625" y="271.8333435058594" style="white-space:pre;stroke:none;fill:rgb(0,0,0);fill-opacity:1;font-size:15px;font-family:Arial, Helvetica, sans-serif;font-weight:400;font-style:normal;dominant-baseline:text-before-edge;text-decoration:rgb(0, 0, 0);">checkFormat</text></g></g></g><g><g><g><text x="52.6666259765625" y="201.8333282470703" style="white-space:pre;stroke:none;fill:rgb(0,0,0);fill-opacity:1;font-size:15px;font-family:Arial, Helvetica, sans-serif;font-weight:400;font-style:normal;dominant-baseline:text-before-edge;text-decoration:rgb(0, 0, 0);">annotateParagraphs</text></g></g></g></svg>
</svg>
