<svg xmlns="http://www.w3.org/2000/svg" xmlns:xlink="http://www.w3.org/1999/xlink" x="0" y="0" width="701.2000325520834" height="382.3999837239583" style="
        width:701.2000325520834px;
        height:382.3999837239583px;
        background: #FFF;
        fill: none;
">
	<script href="./utils.js"></script>
	<script href="./general-containment.js"></script>
        
        
        <svg xmlns="http://www.w3.org/2000/svg" class="role-diagram-draw-area" style="overflow: visible;"><g class="shapes-region" style="stroke: black; fill: none;"><g class="arrow-line"><path class="connection real" stroke-dasharray="" d="  M50.67,120.67 L530.67,120.67" style="stroke: rgb(155, 155, 155); stroke-width: 1px; fill: none; fill-opacity: 1; stroke-opacity: 1;"/></g><g class="arrow-line"><path class="connection real" stroke-dasharray="" d="  M50.67,130.67 L530.67,130.67" style="stroke: rgb(155, 155, 155); stroke-width: 1px; fill: none; fill-opacity: 1; stroke-opacity: 1;"/></g><g class="arrow-line"><path class="connection real" stroke-dasharray="" d="  M50.67,140.67 L530.67,140.67" style="stroke: rgb(155, 155, 155); stroke-width: 1px; fill: none; fill-opacity: 1; stroke-opacity: 1;"/></g><g class="arrow-line"><path class="connection real" stroke-dasharray="" d="  M50.67,150.67 L530.67,150.67" style="stroke: rgb(155, 155, 155); stroke-width: 1px; fill: none; fill-opacity: 1; stroke-opacity: 1;"/></g><g class="arrow-line"><path class="connection real" stroke-dasharray="" d="  M50.67,160.67 L530.67,160.67" style="stroke: rgb(155, 155, 155); stroke-width: 1px; fill: none; fill-opacity: 1; stroke-opacity: 1;"/></g><g class="composite-shape"><path class="real" d=" M62.26,151.02 C61.69,148.89 63.82,146.46 67.02,145.6 C70.22,144.75 73.28,145.78 73.85,147.92 C74.42,150.05 72.29,152.47 69.09,153.33 C65.89,154.19 62.83,153.15 62.26,151.02 Z" style="stroke-width: 2px; stroke: rgb(0, 0, 0); stroke-opacity: 1; fill: rgb(0, 0, 0); fill-opacity: 1;"/></g><g class="arrow-line"><path class="connection real" stroke-dasharray="" d="  M74.55,149.34 L74.55,118.92" style="stroke: rgb(0, 0, 0); stroke-width: 1px; fill: none; fill-opacity: 1;"/></g><g class="composite-shape"><path class="real" d=" M92.18,150.85 C91.61,148.71 93.74,146.29 96.94,145.43 C100.14,144.57 103.2,145.61 103.77,147.74 C104.34,149.87 102.21,152.3 99.01,153.16 C95.81,154.01 92.75,152.98 92.18,150.85 Z" style="stroke-width: 2px; stroke: rgb(0, 0, 0); stroke-opacity: 1; fill: rgb(0, 0, 0); fill-opacity: 1;"/></g><g class="arrow-line"><path class="connection real" stroke-dasharray="" d="  M104.47,149.17 L104.47,118.74" style="stroke: rgb(0, 0, 0); stroke-width: 1px; fill: none; fill-opacity: 1;"/></g><g class="composite-shape"><path class="real" d=" M122.18,161.35 C121.61,159.21 123.74,156.79 126.94,155.93 C130.14,155.07 133.2,156.11 133.77,158.24 C134.34,160.37 132.21,162.8 129.01,163.66 C125.81,164.51 122.75,163.48 122.18,161.35 Z" style="stroke-width: 2px; stroke: rgb(0, 0, 0); fill: none; fill-opacity: 1;"/></g><g class="arrow-line"><path class="connection real" stroke-dasharray="" d="  M134.47,159.67 L134.47,129.24" style="stroke: rgb(0, 0, 0); stroke-width: 1px; fill: none; fill-opacity: 1;"/></g><g class="arrow-line"><path class="connection real" stroke-dasharray="" d="  M50.67,120.67 L50.67,160.67" style="stroke: rgb(155, 155, 155); stroke-width: 1px; fill: none; fill-opacity: 1; stroke-opacity: 1;"/></g><g class="arrow-line"><path class="connection real" stroke-dasharray="" d="  M170.92,120.67 L170.92,160.67" style="stroke: rgb(155, 155, 155); stroke-width: 1px; fill: none; fill-opacity: 1; stroke-opacity: 1;"/></g><g class="arrow-line"><path class="connection real" stroke-dasharray="" d="  M290.92,120.67 L290.92,160.67" style="stroke: rgb(155, 155, 155); stroke-width: 1px; fill: none; fill-opacity: 1; stroke-opacity: 1;"/></g><g class="arrow-line"><path class="connection real" stroke-dasharray="" d="  M410.92,120.67 L410.92,160.67" style="stroke: rgb(155, 155, 155); stroke-width: 1px; fill: none; fill-opacity: 1; stroke-opacity: 1;"/></g><g class="arrow-line"><path class="connection real" stroke-dasharray="" d="  M530.67,120.67 L530.67,160.67" style="stroke: rgb(155, 155, 155); stroke-width: 1px; fill: none; fill-opacity: 1; stroke-opacity: 1;"/></g><g class="composite-shape"><path class="real" d=" M182.01,151.77 C181.44,149.64 183.57,147.21 186.77,146.35 C189.97,145.5 193.03,146.53 193.6,148.67 C194.17,150.8 192.04,153.22 188.84,154.08 C185.64,154.94 182.58,153.9 182.01,151.77 Z" style="stroke-width: 2px; stroke: rgb(0, 0, 0); stroke-opacity: 1; fill: rgb(0, 0, 0); fill-opacity: 1;"/></g><g class="arrow-line"><path class="connection real" stroke-dasharray="" d="  M194.3,150.09 L194.3,119.67" style="stroke: rgb(0, 0, 0); stroke-width: 1px; fill: none; fill-opacity: 1;"/></g><g class="composite-shape"><path class="real" d=" M211.93,151.6 C211.36,149.46 213.49,147.04 216.69,146.18 C219.89,145.32 222.95,146.36 223.52,148.49 C224.09,150.62 221.96,153.05 218.76,153.91 C215.56,154.76 212.5,153.73 211.93,151.6 Z" style="stroke-width: 2px; stroke: rgb(0, 0, 0); stroke-opacity: 1; fill: rgb(0, 0, 0); fill-opacity: 1;"/></g><g class="arrow-line"><path class="connection real" stroke-dasharray="" d="  M224.22,149.92 L224.22,119.49" style="stroke: rgb(0, 0, 0); stroke-width: 1px; fill: none; fill-opacity: 1;"/></g><g class="composite-shape"><path class="real" d=" M241.93,162.1 C241.36,159.96 243.49,157.54 246.69,156.68 C249.89,155.82 252.95,156.86 253.52,158.99 C254.09,161.12 251.96,163.55 248.76,164.41 C245.56,165.26 242.5,164.23 241.93,162.1 Z" style="stroke-width: 2px; stroke: rgb(0, 0, 0); fill: none; fill-opacity: 1;"/></g><g class="arrow-line"><path class="connection real" stroke-dasharray="" d="  M254.22,160.42 L254.22,129.99" style="stroke: rgb(0, 0, 0); stroke-width: 1px; fill: none; fill-opacity: 1;"/></g><g class="composite-shape"><path class="real" d=" M302.15,151.27 C301.58,149.14 303.71,146.71 306.91,145.85 C310.11,145 313.17,146.03 313.74,148.17 C314.31,150.3 312.18,152.72 308.98,153.58 C305.78,154.44 302.72,153.4 302.15,151.27 Z" style="stroke-width: 2px; stroke: rgb(0, 0, 0); stroke-opacity: 1; fill: rgb(0, 0, 0); fill-opacity: 1;"/></g><g class="arrow-line"><path class="connection real" stroke-dasharray="" d="  M314.44,149.59 L314.44,119.17" style="stroke: rgb(0, 0, 0); stroke-width: 1px; fill: none; fill-opacity: 1;"/></g><g class="composite-shape"><path class="real" d=" M332.07,151.1 C331.5,148.96 333.63,146.54 336.83,145.68 C340.03,144.82 343.09,145.86 343.66,147.99 C344.24,150.12 342.1,152.55 338.9,153.41 C335.7,154.26 332.64,153.23 332.07,151.1 Z" style="stroke-width: 2px; stroke: rgb(0, 0, 0); stroke-opacity: 1; fill: rgb(0, 0, 0); fill-opacity: 1;"/></g><g class="arrow-line"><path class="connection real" stroke-dasharray="" d="  M344.36,149.42 L344.36,118.99" style="stroke: rgb(0, 0, 0); stroke-width: 1px; fill: none; fill-opacity: 1;"/></g><g class="composite-shape"><path class="real" d=" M422.82,151.35 C422.25,149.21 424.38,146.79 427.58,145.93 C430.78,145.07 433.84,146.11 434.41,148.24 C434.99,150.37 432.85,152.8 429.65,153.66 C426.45,154.51 423.39,153.48 422.82,151.35 Z" style="stroke-width: 2px; stroke: rgb(0, 0, 0); fill: none; fill-opacity: 1;"/></g><g class="arrow-line"><path class="connection real" stroke-dasharray="" d="  M435.11,149.67 L435.11,119.24" style="stroke: rgb(0, 0, 0); stroke-width: 1px; fill: none; fill-opacity: 1;"/></g><g class="composite-shape"><path class="real" d=" M361.65,147.27 C361.08,145.14 363.21,142.71 366.41,141.85 C369.61,141 372.67,142.03 373.24,144.17 C373.81,146.3 371.68,148.72 368.48,149.58 C365.28,150.44 362.22,149.4 361.65,147.27 Z" style="stroke-width: 2px; stroke: rgb(0, 0, 0); stroke-opacity: 1; fill: rgb(0, 0, 0); fill-opacity: 1;"/></g><g class="arrow-line"><path class="connection real" stroke-dasharray="" d="  M373.94,145.59 L373.94,115.17" style="stroke: rgb(0, 0, 0); stroke-width: 1px; fill: none; fill-opacity: 1;"/></g><g class="composite-shape"><path class="real" d=" M388.07,150.85 C387.5,148.71 389.63,146.29 392.83,145.43 C396.03,144.57 399.09,145.61 399.66,147.74 C400.24,149.87 398.1,152.3 394.9,153.16 C391.7,154.01 388.64,152.98 388.07,150.85 Z" style="stroke-width: 2px; stroke: rgb(0, 0, 0); stroke-opacity: 1; fill: rgb(0, 0, 0); fill-opacity: 1;"/></g><g class="arrow-line"><path class="connection real" stroke-dasharray="" d="  M400.36,149.17 L400.36,118.74" style="stroke: rgb(0, 0, 0); stroke-width: 1px; fill: none; fill-opacity: 1;"/></g><g class="composite-shape"><path class="real" d=" M470.82,157.35 C470.25,155.21 472.38,152.79 475.58,151.93 C478.78,151.07 481.84,152.11 482.41,154.24 C482.99,156.37 480.85,158.8 477.65,159.66 C474.45,160.51 471.39,159.48 470.82,157.35 Z" style="stroke-width: 2px; stroke: rgb(0, 0, 0); fill: none; fill-opacity: 1;"/></g><g class="arrow-line"><path class="connection real" stroke-dasharray="" d="  M483.11,155.67 L483.11,125.24" style="stroke: rgb(0, 0, 0); stroke-width: 1px; fill: none; fill-opacity: 1;"/></g><g class="arrow-line"><path class="connection real" stroke-dasharray="" d="  M51.33,192 L531.33,192" style="stroke: rgb(155, 155, 155); stroke-width: 1px; fill: none; fill-opacity: 1; stroke-opacity: 1;"/></g><g class="arrow-line"><path class="connection real" stroke-dasharray="" d="  M51.33,202 L531.33,202" style="stroke: rgb(155, 155, 155); stroke-width: 1px; fill: none; fill-opacity: 1; stroke-opacity: 1;"/></g><g class="arrow-line"><path class="connection real" stroke-dasharray="" d="  M51.33,212 L531.33,212" style="stroke: rgb(155, 155, 155); stroke-width: 1px; fill: none; fill-opacity: 1; stroke-opacity: 1;"/></g><g class="arrow-line"><path class="connection real" stroke-dasharray="" d="  M51.33,222 L531.33,222" style="stroke: rgb(155, 155, 155); stroke-width: 1px; fill: none; fill-opacity: 1; stroke-opacity: 1;"/></g><g class="arrow-line"><path class="connection real" stroke-dasharray="" d="  M51.33,232 L531.33,232" style="stroke: rgb(155, 155, 155); stroke-width: 1px; fill: none; fill-opacity: 1; stroke-opacity: 1;"/></g><g class="composite-shape"><path class="real" d=" M62.93,222.35 C62.35,220.22 64.49,217.8 67.69,216.94 C70.89,216.08 73.95,217.11 74.52,219.25 C75.09,221.38 72.96,223.81 69.76,224.67 C66.56,225.52 63.5,224.49 62.93,222.35 Z" style="stroke-width: 2px; stroke: rgb(0, 0, 0); stroke-opacity: 1; fill: rgb(0, 0, 0); fill-opacity: 1;"/></g><g class="arrow-line"><path class="connection real" stroke-dasharray="" d="  M75.21,220.67 L75.21,190.25" style="stroke: rgb(0, 0, 0); stroke-width: 1px; fill: none; fill-opacity: 1;"/></g><g class="composite-shape"><path class="real" d=" M92.85,222.18 C92.27,220.05 94.41,217.62 97.61,216.76 C100.81,215.9 103.87,216.94 104.44,219.07 C105.01,221.21 102.88,223.63 99.68,224.49 C96.48,225.35 93.42,224.31 92.85,222.18 Z" style="stroke-width: 2px; stroke: rgb(0, 0, 0); stroke-opacity: 1; fill: rgb(0, 0, 0); fill-opacity: 1;"/></g><g class="arrow-line"><path class="connection real" stroke-dasharray="" d="  M105.13,220.5 L105.13,190.08" style="stroke: rgb(0, 0, 0); stroke-width: 1px; fill: none; fill-opacity: 1;"/></g><g class="composite-shape"><path class="real" d=" M122.85,232.68 C122.27,230.55 124.41,228.12 127.61,227.26 C130.81,226.4 133.87,227.44 134.44,229.57 C135.01,231.71 132.88,234.13 129.68,234.99 C126.48,235.85 123.42,234.81 122.85,232.68 Z" style="stroke-width: 2px; stroke: rgb(0, 0, 0); fill: none; fill-opacity: 1;"/></g><g class="arrow-line"><path class="connection real" stroke-dasharray="" d="  M135.13,231 L135.13,200.58" style="stroke: rgb(0, 0, 0); stroke-width: 1px; fill: none; fill-opacity: 1;"/></g><g class="arrow-line"><path class="connection real" stroke-dasharray="" d="  M51.33,192 L51.33,232" style="stroke: rgb(155, 155, 155); stroke-width: 1px; fill: none; fill-opacity: 1; stroke-opacity: 1;"/></g><g class="arrow-line"><path class="connection real" stroke-dasharray="" d="  M171.58,192 L171.58,232" style="stroke: rgb(155, 155, 155); stroke-width: 1px; fill: none; fill-opacity: 1; stroke-opacity: 1;"/></g><g class="arrow-line"><path class="connection real" stroke-dasharray="" d="  M291.58,192 L291.58,232" style="stroke: rgb(155, 155, 155); stroke-width: 1px; fill: none; fill-opacity: 1; stroke-opacity: 1;"/></g><g class="arrow-line"><path class="connection real" stroke-dasharray="" d="  M411.58,192 L411.58,232" style="stroke: rgb(155, 155, 155); stroke-width: 1px; fill: none; fill-opacity: 1; stroke-opacity: 1;"/></g><g class="arrow-line"><path class="connection real" stroke-dasharray="" d="  M531.33,192 L531.33,232" style="stroke: rgb(155, 155, 155); stroke-width: 1px; fill: none; fill-opacity: 1; stroke-opacity: 1;"/></g><g class="composite-shape"><path class="real" d=" M182.68,223.1 C182.1,220.97 184.24,218.55 187.44,217.69 C190.64,216.83 193.7,217.86 194.27,220 C194.84,222.13 192.71,224.56 189.51,225.42 C186.31,226.27 183.25,225.24 182.68,223.1 Z" style="stroke-width: 2px; stroke: rgb(0, 0, 0); stroke-opacity: 1; fill: rgb(0, 0, 0); fill-opacity: 1;"/></g><g class="arrow-line"><path class="connection real" stroke-dasharray="" d="  M194.96,221.42 L194.96,191" style="stroke: rgb(0, 0, 0); stroke-width: 1px; fill: none; fill-opacity: 1;"/></g><g class="composite-shape"><path class="real" d=" M212.6,222.93 C212.02,220.8 214.16,218.37 217.36,217.51 C220.56,216.65 223.62,217.69 224.19,219.82 C224.76,221.96 222.63,224.38 219.43,225.24 C216.23,226.1 213.17,225.06 212.6,222.93 Z" style="stroke-width: 2px; stroke: rgb(0, 0, 0); stroke-opacity: 1; fill: rgb(0, 0, 0); fill-opacity: 1;"/></g><g class="arrow-line"><path class="connection real" stroke-dasharray="" d="  M224.88,221.25 L224.88,190.83" style="stroke: rgb(0, 0, 0); stroke-width: 1px; fill: none; fill-opacity: 1;"/></g><g class="composite-shape"><path class="real" d=" M242.6,233.43 C242.02,231.3 244.16,228.87 247.36,228.01 C250.56,227.15 253.62,228.19 254.19,230.32 C254.76,232.46 252.63,234.88 249.43,235.74 C246.23,236.6 243.17,235.56 242.6,233.43 Z" style="stroke-width: 2px; stroke: rgb(0, 0, 0); fill: none; fill-opacity: 1;"/></g><g class="arrow-line"><path class="connection real" stroke-dasharray="" d="  M254.88,231.75 L254.88,201.33" style="stroke: rgb(0, 0, 0); stroke-width: 1px; fill: none; fill-opacity: 1;"/></g><g class="composite-shape"><path class="real" d=" M302.82,222.6 C302.25,220.47 304.38,218.05 307.58,217.19 C310.78,216.33 313.84,217.36 314.41,219.5 C314.98,221.63 312.85,224.06 309.65,224.92 C306.45,225.77 303.39,224.74 302.82,222.6 Z" style="stroke-width: 2px; stroke: rgb(0, 0, 0); stroke-opacity: 1; fill: rgb(0, 0, 0); fill-opacity: 1;"/></g><g class="arrow-line"><path class="connection real" stroke-dasharray="" d="  M315.11,220.92 L315.11,190.5" style="stroke: rgb(0, 0, 0); stroke-width: 1px; fill: none; fill-opacity: 1;"/></g><g class="composite-shape"><path class="real" d=" M332.74,222.43 C332.17,220.3 334.3,217.87 337.5,217.01 C340.7,216.15 343.76,217.19 344.33,219.32 C344.9,221.46 342.77,223.88 339.57,224.74 C336.37,225.6 333.31,224.56 332.74,222.43 Z" style="stroke-width: 2px; stroke: rgb(0, 0, 0); stroke-opacity: 1; fill: rgb(0, 0, 0); fill-opacity: 1;"/></g><g class="arrow-line"><path class="connection real" stroke-dasharray="" d="  M345.03,220.75 L345.03,190.33" style="stroke: rgb(0, 0, 0); stroke-width: 1px; fill: none; fill-opacity: 1;"/></g><g class="composite-shape"><path class="real" d=" M423.49,222.68 C422.92,220.55 425.05,218.12 428.25,217.26 C431.45,216.4 434.51,217.44 435.08,219.57 C435.65,221.71 433.52,224.13 430.32,224.99 C427.12,225.85 424.06,224.81 423.49,222.68 Z" style="stroke-width: 2px; stroke: rgb(0, 0, 0); fill: none; fill-opacity: 1;"/></g><g class="arrow-line"><path class="connection real" stroke-dasharray="" d="  M435.78,221 L435.78,190.58" style="stroke: rgb(0, 0, 0); stroke-width: 1px; fill: none; fill-opacity: 1;"/></g><g class="composite-shape"><path class="real" d=" M362.32,218.6 C361.75,216.47 363.88,214.05 367.08,213.19 C370.28,212.33 373.34,213.36 373.91,215.5 C374.48,217.63 372.35,220.06 369.15,220.92 C365.95,221.77 362.89,220.74 362.32,218.6 Z" style="stroke-width: 2px; stroke: rgb(0, 0, 0); stroke-opacity: 1; fill: rgb(0, 0, 0); fill-opacity: 1;"/></g><g class="arrow-line"><path class="connection real" stroke-dasharray="" d="  M374.61,216.92 L374.61,186.5" style="stroke: rgb(0, 0, 0); stroke-width: 1px; fill: none; fill-opacity: 1;"/></g><g class="composite-shape"><path class="real" d=" M388.74,222.18 C388.17,220.05 390.3,217.62 393.5,216.76 C396.7,215.9 399.76,216.94 400.33,219.07 C400.9,221.21 398.77,223.63 395.57,224.49 C392.37,225.35 389.31,224.31 388.74,222.18 Z" style="stroke-width: 2px; stroke: rgb(0, 0, 0); stroke-opacity: 1; fill: rgb(0, 0, 0); fill-opacity: 1;"/></g><g class="arrow-line"><path class="connection real" stroke-dasharray="" d="  M401.03,220.5 L401.03,190.08" style="stroke: rgb(0, 0, 0); stroke-width: 1px; fill: none; fill-opacity: 1;"/></g><g class="composite-shape"><path class="real" d=" M471.49,228.68 C470.92,226.55 473.05,224.12 476.25,223.26 C479.45,222.4 482.51,223.44 483.08,225.57 C483.65,227.71 481.52,230.13 478.32,230.99 C475.12,231.85 472.06,230.81 471.49,228.68 Z" style="stroke-width: 2px; stroke: rgb(0, 0, 0); fill: none; fill-opacity: 1;"/></g><g class="arrow-line"><path class="connection real" stroke-dasharray="" d="  M483.78,227 L483.78,196.58" style="stroke: rgb(0, 0, 0); stroke-width: 1px; fill: none; fill-opacity: 1;"/></g><g class="composite-shape"><path class="real" d=" M478.68,1.6 L699.08,1.6 L699.08,62.36 L478.68,62.36 Z" style="stroke-width: 1px; stroke: rgb(144, 19, 254); fill: none; fill-opacity: 1; stroke-opacity: 1;"/></g><g class="composite-shape"><path class="real" d=" M470.8,280.52 L691.2,280.52 L691.2,362.52 L470.8,362.52 Z" style="stroke-width: 1px; stroke: rgb(208, 2, 27); stroke-opacity: 1; fill: none; fill-opacity: 1;"/></g><g class="composite-shape"><path class="real" d=" M173.2,277.64 L393.6,277.64 L393.6,338.4 L173.2,338.4 Z" style="stroke-width: 1px; stroke: rgb(248, 231, 28); stroke-opacity: 1; fill: none; fill-opacity: 1;"/></g><g class="composite-shape"><path class="real" d=" M588.24,210.12 L658.24,210.12 L658.24,250.12 L588.24,250.12 Z" style="stroke-width: 1px; stroke: rgb(0, 0, 0); fill: rgb(223, 223, 223); fill-opacity: 1;"/></g><g class="arrow-line"><path class="connection real" stroke-dasharray="" d="  M612.12,249.64 L583.72,281" style="stroke: rgb(208, 2, 27); stroke-width: 1px; fill: none; fill-opacity: 1; stroke-opacity: 1;"/></g><g/></g><g/><g/><g/></svg>
        <svg xmlns="http://www.w3.org/2000/svg" xmlns:xlink="http://www.w3.org/1999/xlink" width="700" height="381.1999918619792" style="width:700px;height:381.1999918619792px;font-family:Asana-Math, Asana;background:#FFF;"><g><g><g><text x="51.26668294270834" y="46.699991861979164" style="white-space:pre;stroke:none;fill:rgb(0,0,0);fill-opacity:1;font-size:15px;font-family:Arial, Helvetica, sans-serif;font-weight:400;font-style:normal;dominant-baseline:text-before-edge;text-decoration:none;">Skákal pes přes oves, přes zelenou louku</text></g></g><g><g><text x="51.26668294270834" y="67.69999186197917" style="white-space:pre;stroke:none;fill:rgb(0,0,0);fill-opacity:1;font-size:15px;font-family:Arial, Helvetica, sans-serif;font-weight:400;font-style:normal;dominant-baseline:text-before-edge;text-decoration:none;">šel za ním myslivec, péro na klobouku</text></g></g></g><g><g><g><text x="488.9222412109375" y="14.5" style="white-space:pre;stroke:none;fill:rgb(0,0,0);fill-opacity:1;font-size:10.5px;font-family:Arial, Helvetica, sans-serif;font-weight:400;font-style:normal;dominant-baseline:text-before-edge;text-decoration:none;">detect objects (touching, by color)</text></g></g><g><g><text x="488.9222412109375" y="35.5" style="white-space:pre;stroke:none;fill:rgb(0,0,0);fill-opacity:1;font-size:10.5px;font-family:Arial, Helvetica, sans-serif;font-weight:400;font-style:normal;dominant-baseline:text-before-edge;text-decoration:none;">categorize objects (by visual properties</text></g></g><g></g><g></g></g>
        <g>
        <g><g><text x="484.5222574869792" y="292.22222900390625" style="white-space:pre;stroke:none;fill:rgb(0,0,0);fill-opacity:1;font-size:10.5px;font-family:Arial, Helvetica, sans-serif;font-weight:400;font-style:normal;dominant-baseline:text-before-edge;text-decoration:none;">#button</text></g></g>
        </g>
        <g>
        <g><g><text x="484.5222574869792" y="313.22222900390625" style="white-space:pre;stroke:none;fill:rgb(0,0,0);fill-opacity:1;font-size:10.5px;font-family:Arial, Helvetica, sans-serif;font-weight:400;font-style:normal;dominant-baseline:text-before-edge;text-decoration:none;">alert('done');</text></g></g>
        <g><g><text x="484.5222574869792" y="334.22222900390625" style="white-space:pre;stroke:none;fill:rgb(0,0,0);fill-opacity:1;font-size:10px;font-family:Arial, Helvetica, sans-serif;font-weight:400;font-style:normal;dominant-baseline:text-before-edge;text-decoration:none;">byId('button').onclick = () => alert('Click!')</text></g></g>
        </g><g><g><g><text x="186.12223307291666" y="290.90000406901044" style="white-space:pre;stroke:none;fill:rgb(0,0,0);fill-opacity:1;font-size:10.5px;font-family:Arial, Helvetica, sans-serif;font-weight:400;font-style:normal;dominant-baseline:text-before-edge;text-decoration:none;">write function to play a collection of</text></g></g><g><g><text x="186.12223307291666" y="311.90000406901044" style="white-space:pre;stroke:none;fill:rgb(0,0,0);fill-opacity:1;font-size:10.5px;font-family:Arial, Helvetica, sans-serif;font-weight:400;font-style:normal;dominant-baseline:text-before-edge;text-decoration:none;">notes using the Tone.js library</text></g></g></g><g><g><g><text x="609.2333577473958" y="221.6222127278646" style="white-space:pre;stroke:none;fill:rgb(0,0,0);fill-opacity:1;font-size:15px;font-family:Arial, Helvetica, sans-serif;font-weight:400;font-style:normal;dominant-baseline:text-before-edge;text-decoration:none;">Play!</text></g></g></g></svg>
</svg>
